<svg width="120" height="120" viewBox="0 0 120 120" fill="none" xmlns="http://www.w3.org/2000/svg">
<circle cx="60" cy="60" r="60" fill="#363535" fill-opacity="0.95"/>
<mask id="mask0" mask-type="alpha" maskUnits="userSpaceOnUse" x="33" y="32" width="54" height="58">
<path d="M63.44 89.96C57.7333 89.96 52.56 88.7333 47.92 86.28C43.3333 83.7733 39.7067 80.3333 37.04 75.96C34.4267 71.5333 33.12 66.5467 33.12 61C33.12 55.4533 34.4267 50.4933 37.04 46.12C39.7067 41.6933 43.3333 38.2533 47.92 35.8C52.56 33.2933 57.76 32.04 63.52 32.04C68.3733 32.04 72.7467 32.8933 76.64 34.6C80.5867 36.3067 83.8933 38.76 86.56 41.96L78.24 49.64C74.4533 45.2667 69.76 43.08 64.16 43.08C60.6933 43.08 57.6 43.8533 54.88 45.4C52.16 46.8933 50.0267 49 48.48 51.72C46.9867 54.44 46.24 57.5333 46.24 61C46.24 64.4667 46.9867 67.56 48.48 70.28C50.0267 73 52.16 75.1333 54.88 76.68C57.6 78.1733 60.6933 78.92 64.16 78.92C69.76 78.92 74.4533 76.7067 78.24 72.28L86.56 79.96C83.8933 83.2133 80.5867 85.6933 76.64 87.4C72.6933 89.1067 68.2933 89.96 63.44 89.96Z" fill="white"/>
</mask>
<g mask="url(#mask0)">
<path d="M63.44 89.96C57.7333 89.96 52.56 88.7333 47.92 86.28C43.3333 83.7733 39.7067 80.3333 37.04 75.96C34.4267 71.5333 33.12 66.5467 33.12 61C33.12 55.4533 34.4267 50.4933 37.04 46.12C39.7067 41.6933 43.3333 38.2533 47.92 35.8C52.56 33.2933 57.76 32.04 63.52 32.04C68.3733 32.04 72.7467 32.8933 76.64 34.6C80.5867 36.3067 83.8933 38.76 86.56 41.96L78.24 49.64C74.4533 45.2667 69.76 43.08 64.16 43.08C60.6933 43.08 57.6 43.8533 54.88 45.4C52.16 46.8933 50.0267 49 48.48 51.72C46.9867 54.44 46.24 57.5333 46.24 61C46.24 64.4667 46.9867 67.56 48.48 70.28C50.0267 73 52.16 75.1333 54.88 76.68C57.6 78.1733 60.6933 78.92 64.16 78.92C69.76 78.92 74.4533 76.7067 78.24 72.28L86.56 79.96C83.8933 83.2133 80.5867 85.6933 76.64 87.4C72.6933 89.1067 68.2933 89.96 63.44 89.96Z" fill="white"/>
<path d="M106 85C106 85 89.7126 60 85.8802 85C82.0479 110 69.4584 98.5563 60.9701 68C43.4148 55.5384 59.0539 48 73.4251 42C87.7964 36 85.8822 14.5212 42.2874 11C37.018 39.5 26 85 26 85L85.8802 115.5L106 85Z" fill="url(#paint0_linear)"/>
</g>
<defs>
<linearGradient id="paint0_linear" x1="66" y1="11" x2="66" y2="115.5" gradientUnits="userSpaceOnUse">
<stop stop-color="#FF9A02"/>
<stop offset="1" stop-color="#FA00FF" stop-opacity="0.6"/>
</linearGradient>
</defs>
</svg>
